# xmcd
#
# Track frame offsets:
#	150
#	16485
#	29965
#	45529
#	62104
#	72297
#	81703
#	98637
#	109582
#	126568
#	141108
#	151195
#	163902
#	176536
#	190692
#	201921
#	216196
#	231018
#	245896
#	262946
#	277713
#	287078
#	303040
#
# Disc length: 4232 seconds
#
# Revision: 0
# Processed by: cddbd v1.5.2PL0 Copyright (c) Steve Scherf et al.
# Submitted via: audiograbber 1.83.01
#
DISCID=52108617
DTITLE=Western Heart - Christmas 2007
DYEAR=2007
DGENRE=Christan
TTITLE0=Kris Kringle´s Krick  - Hal Willis
TTITLE1=Christmas Island  - Stevie Cee
TTITLE2=To Us A Child Is Born  - Myrol 
TTITLE3=Home For Christmas  - Vance Greek
TTITLE4=Little God Angel  - Karen Dee
TTITLE5=The Christmas Polka  - Hal Willis
TTITLE6=O Holy Night  - Cheryl Edelman
TTITLE7=Christmas Song  - Tim Chesney
TTITLE8=All I Want For Christmas Is You - Chreyl Edelman
TTITLE9=Oh Beautiful Star Of Bethlehem  - Becky Wright
TTITLE10=Santa And The Lumberjack  - Hal Willis
TTITLE11=An Old Christmas Card - Gary Cooper
TTITLE12=Merry Christmas Baby  - Jim Marlboro
TTITLE13=Did You Think To Pray  - Cindy Standage
TTITLE14=Dysfunctional Family Christmas  - Angie Heart
TTITLE15=Kissing At Christmas  - Lana Brown
TTITLE16=Beatiful Star - Kerr Donnelly Band
TTITLE17=All I Want For Christmas Is You - Sylvia Winters
TTITLE18=Christmas Cookies  - Rustie Blue
TTITLE19=Rocking Around The Christmas Tree  - Stevie Cee
TTITLE20=When Christmas Was Homemade  - Rustie Blue
TTITLE21=Jose Daniel
TTITLE22=Oh Beatiful Star Of Bethlehem  - Shy Anne Mailen
EXTD=
EXTT0=
EXTT1=
EXTT2=
EXTT3=
EXTT4=
EXTT5=
EXTT6=
EXTT7=
EXTT8=
EXTT9=
EXTT10=
EXTT11=
EXTT12=
EXTT13=
EXTT14=
EXTT15=
EXTT16=
EXTT17=
EXTT18=
EXTT19=
EXTT20=
EXTT21=
EXTT22=
PLAYORDER=
